<?xml version="1.0" encoding="UTF-8" standalone="no"?>
<!-- Created with Inkscape (http://www.inkscape.org/) -->

<svg
   width="48.71434mm"
   height="25.311634mm"
   viewBox="0 0 48.71434 25.311634"
   version="1.1"
   id="svg1"
   inkscape:version="1.4.3 (0d15f75, 2025-12-25)"
   sodipodi:docname="favicon.svg"
   xmlns:inkscape="http://www.inkscape.org/namespaces/inkscape"
   xmlns:sodipodi="http://sodipodi.sourceforge.net/DTD/sodipodi-0.dtd"
   xmlns="http://www.w3.org/2000/svg"
   xmlns:svg="http://www.w3.org/2000/svg">
  <sodipodi:namedview
     id="namedview1"
     pagecolor="#ffffff"
     bordercolor="#000000"
     borderopacity="0.25"
     inkscape:showpageshadow="2"
     inkscape:pageopacity="0.0"
     inkscape:pagecheckerboard="0"
     inkscape:deskcolor="#d1d1d1"
     inkscape:document-units="mm"
     inkscape:zoom="1.0396254"
     inkscape:cx="370.80663"
     inkscape:cy="516.05125"
     inkscape:window-width="3424"
     inkscape:window-height="1353"
     inkscape:window-x="1136"
     inkscape:window-y="480"
     inkscape:window-maximized="0"
     inkscape:current-layer="layer1" />
  <defs
     id="defs1" />
  <g
     inkscape:label="Layer 1"
     inkscape:groupmode="layer"
     id="layer1"
     transform="translate(-6.848161,-11.984281)">
    <g
       id="g68"
       inkscape:label="帽子"
       transform="translate(-33.744549,-41.116756)">
      <path
         id="path60"
         style="display:inline;fill:#ffcc00;stroke-width:0.264583"
         d="m 65.027394,53.101037 a 11.82843,13.462623 0 0 0 -8.862508,4.54701 24.357229,10.743999 0 0 1 8.784993,-0.72347 24.357229,10.743999 0 0 1 8.964828,0.754476 11.82843,13.462623 0 0 0 -8.887313,-4.578016 z m 8.887313,4.578016 a 24.357229,10.743999 0 0 0 -8.964828,-0.754476 24.357229,10.743999 0 0 0 -8.784993,0.72347 11.82843,13.462623 0 0 0 -2.965711,8.915218 11.82843,13.462623 0 0 0 5.695777,11.511959 24.357229,10.743999 0 0 0 6.054927,0.337447 24.357229,10.743999 0 0 0 6.24148,-0.358635 11.82843,13.462623 0 0 0 5.66477,-11.490771 11.82843,13.462623 0 0 0 -2.941422,-8.884212 z m 0,0 a 11.82843,13.462623 0 0 1 2.941422,8.884212 11.82843,13.462623 0 0 1 -5.66477,11.490771 24.357229,10.743999 0 0 0 18.11569,-10.385412 24.357229,10.743999 0 0 0 -15.392342,-9.989571 z M 58.894952,78.075224 a 11.82843,13.462623 0 0 1 -5.695777,-11.511959 11.82843,13.462623 0 0 1 2.965711,-8.915218 24.357229,10.743999 0 0 0 -15.572176,10.020577 24.357229,10.743999 0 0 0 18.302242,10.4066 z"
         inkscape:label="帽子" />
      <path
         d="m 75.654136,65.12511 a 12.009217,7.4706733 2.8676774 0 1 -11.390003,4.150134 12.009217,7.4706733 2.8676774 0 1 -10.047449,-4.080371 10.972426,5.8363967 0 0 0 -0.239261,1.212846 10.972426,5.8363967 0 0 0 10.972456,5.836336 10.972426,5.8363967 0 0 0 10.972457,-5.836336 10.972426,5.8363967 0 0 0 -0.2682,-1.282609 z"
         style="display:inline;fill:#d40000;stroke-width:0.264583"
         id="path67"
         inkscape:label="リボン" />
    </g>
  </g>
</svg>
