<?xml version="1.0" encoding="UTF-8" standalone="no"?>
<svg
   width="150.8125mm"
   height="44.979168mm"
   viewBox="0 0 150.8125 44.979168"
   version="1.1"
   id="svg1"
   xmlns="http://www.w3.org/2000/svg">
  <g id="layer1" transform="translate(-33.744549,-41.116756)">
    <g id="g18">
      <path style="fill:#333333;fill-opacity:1" d="m 166.57062,75.578737 c 0.003,-0.109141 0.47869,-1.984375 1.05735,-4.167188 0.57866,-2.182813 1.05255,-4.117578 1.05309,-4.299479 l 9.9e-4,-0.33073 h -2.50111 -2.5011 l -0.25117,0.909646 c -0.13814,0.500304 -0.46776,1.750461 -0.73249,2.778125 l -0.48134,1.86848 h -2.45493 c -1.35022,0 -2.45494,-0.06794 -2.45494,-0.15097 0,-0.08303 0.65484,-2.590865 1.4552,-5.572961 0.80037,-2.982096 1.45521,-5.474003 1.45521,-5.537572 0,-0.06357 1.12812,-0.115581 2.50693,-0.115581 h 2.50693 l -0.15875,0.79375 -0.15875,0.79375 h 4.92786 c 2.71033,0 4.92787,0.07334 4.92787,0.162969 0,0.08963 -0.73715,3.066196 -1.6381,6.614584 l -1.6381,6.451614 h -2.46294 -2.46295 z" id="path34" />
      <path style="fill:#333333;fill-opacity:1" d="m 141.49302,68.633424 0.53157,-2.116667 h 7.5362 7.53621 l -0.11989,0.330729 c -0.0659,0.181901 -0.33447,1.134401 -0.59674,2.116667 l -0.47686,1.785938 h -7.47103 -7.47103 z" id="path35" />
      <path style="fill:#333333;fill-opacity:1" d="m 126.08413,75.816656 c 0,-0.123806 0.11324,-0.57029 0.25165,-0.992187 0.1384,-0.421898 0.38022,-1.269766 0.53737,-1.884153 l 0.28572,-1.117066 3.62515,-0.07356 3.62514,-0.07356 0.72147,-2.645833 c 0.3968,-1.455208 0.72633,-2.854193 0.73227,-3.108854 l 0.0108,-0.463021 h -2.4841 -2.4841 l -0.17372,0.926041 -0.17373,0.926042 h -2.50155 c -1.37586,0 -2.50155,-0.07097 -2.50155,-0.157716 0,-0.08674 0.17859,-0.801119 0.39687,-1.5875 0.21828,-0.786381 0.5788,-2.084628 0.80114,-2.884992 l 0.40427,-1.455209 h 7.48943 7.48944 l -1.42006,5.357813 c -0.78103,2.946797 -1.66733,6.280547 -1.96956,7.408334 l -0.5495,2.05052 h -6.05644 -6.05643 z" id="path33" />
      <path id="path32" style="fill:#333333;fill-opacity:1" d="m 116.82372,75.970294 c 0,-0.07803 0.99542,-3.744387 1.21975,-4.492599 l 0.13882,-0.463021 h -5.07322 -5.07322 l 0.16778,-0.437219 c 0.0923,-0.240471 0.35761,-1.192971 0.58964,-2.116667 l 0.42186,-1.679448 h 7.53677 7.53676 l -0.15065,0.392593 c -0.0829,0.215926 -0.65001,2.29952 -1.26033,4.630209 l -1.10968,4.237615 h -2.47214 c -1.35968,0 -2.47214,-0.03216 -2.47214,-0.07146 z m -7.03004,-11.235303 c 0.0953,-0.402477 0.35008,-1.356854 0.56629,-2.120838 l 0.39311,-1.389063 h 7.40094 7.40095 l -10e-4,0.33073 c -5.7e-4,0.181901 -0.21972,1.104635 -0.48701,2.05052 l -0.48597,1.719792 -7.48022,0.07032 -7.48022,0.07032 z" />
      <path style="fill:#333333;fill-opacity:1" d="m 90.476544,75.604538 c 0.09228,-0.240471 0.356982,-1.190448 0.588232,-2.111061 l 0.420456,-1.673842 5.037996,-0.07175 5.037992,-0.07175 1.35808,-5.159375 1.35808,-5.159375 2.43671,-0.07608 2.43671,-0.07607 0.002,0.208366 c 0.001,0.114602 -0.8528,3.45282 -1.89758,7.418262 l -1.89958,7.209896 h -7.523441 -7.523442 z" id="path31" />
    </g>
    <g id="g68">
      <path id="path60" style="display:inline;fill:#ffcc00;stroke-width:0.264583" d="m 65.027394,53.101037 a 11.82843,13.462623 0 0 0 -8.862508,4.54701 24.357229,10.743999 0 0 1 8.784993,-0.72347 24.357229,10.743999 0 0 1 8.964828,0.754476 11.82843,13.462623 0 0 0 -8.887313,-4.578016 z m 8.887313,4.578016 a 24.357229,10.743999 0 0 0 -8.964828,-0.754476 24.357229,10.743999 0 0 0 -8.784993,0.72347 11.82843,13.462623 0 0 0 -2.965711,8.915218 11.82843,13.462623 0 0 0 5.695777,11.511959 24.357229,10.743999 0 0 0 6.054927,0.337447 24.357229,10.743999 0 0 0 6.24148,-0.358635 11.82843,13.462623 0 0 0 5.66477,-11.490771 11.82843,13.462623 0 0 0 -2.941422,-8.884212 z m 0,0 a 11.82843,13.462623 0 0 1 2.941422,8.884212 11.82843,13.462623 0 0 1 -5.66477,11.490771 24.357229,10.743999 0 0 0 18.11569,-10.385412 24.357229,10.743999 0 0 0 -15.392342,-9.989571 z M 58.894952,78.075224 a 11.82843,13.462623 0 0 1 -5.695777,-11.511959 11.82843,13.462623 0 0 1 2.965711,-8.915218 24.357229,10.743999 0 0 0 -15.572176,10.020577 24.357229,10.743999 0 0 0 18.302242,10.4066 z" />
      <path d="m 75.654136,65.12511 a 12.009217,7.4706733 2.8676774 0 1 -11.390003,4.150134 12.009217,7.4706733 2.8676774 0 1 -10.047449,-4.080371 10.972426,5.8363967 0 0 0 -0.239261,1.212846 10.972426,5.8363967 0 0 0 10.972456,5.836336 10.972426,5.8363967 0 0 0 10.972457,-5.836336 10.972426,5.8363967 0 0 0 -0.2682,-1.282609 z" style="display:inline;fill:#d40000;stroke-width:0.264583" id="path67" />
    </g>
  </g>
</svg>
